# xmcd
#
# Track frame offsets:
#	150
#	10960
#	22292
#	32365
#	44485
#	55278
#	65501
#	77119
#	89056
#	101313
#	113521
#	123748
#	134963
#	146188
#	155876
#	166397
#	176022
#	186251
#	197248
#	209181
#	220729
#	230944
#	242932
#	255014
#	263562
#	272265
#	284708
#	296128
#	307603
#	319238
#
# Disc length: 4392 seconds
#
# Revision: 0
# Processed by: cddbd v1.5.2PL0 Copyright (c) Steve Scherf et al.
# Submitted via: audiograbber 1.83.01
#
DISCID=d911261e
DTITLE=Don Gibson - The Complete Recordings [1952-1962] [CD1]
DYEAR=2017
DGENRE=Country
TTITLE0=Sample Kisses
TTITLE1=Let Me Stay In Your Arms
TTITLE2=We're Stepping Out Tonight
TTITLE3=No Shoulder To Cry On
TTITLE4=Walin' In The Moonlight
TTITLE5=I Just Love The Way You Tell A Lie
TTITLE6=Sweet Dreams (1958)
TTITLE7=I Must Forget (1958)
TTITLE8=Run Boy (1958)
TTITLE9=The Road Of Life alone (1958)
TTITLE10=Ah-Ho (1958)
TTITLE11=It Happens Everytime (1958)
TTITLE12=I Ain't Gonna Waste My Time (1958)
TTITLE13=I Ain't A-Studing You Baby (1958)
TTITLE14=I'm Gonna Fool Everybody (1958)
TTITLE15=I Believed In You (1958)
TTITLE16=What A Fool I Was To Fall (For You) (1958)
TTITLE17=You're The Only One For Me (1958)
TTITLE18=Bad, Bad Day (1958)
TTITLE19=Take Me As I Am (Or Let Me Go) (1958)
TTITLE20=I Can't Leave (1958)
TTITLE21=I Can't Stop Loving You (1958)
TTITLE22=Blues In My Heart (1958)
TTITLE23=Sweet, Sweet Girl (1958)
TTITLE24=Blue, Blue Day
TTITLE25=Heartbreak Avenue (1958)
TTITLE26=We Could (1958)
TTITLE27=Lonesome Me (1958)
TTITLE28=Too Soon To Know (1958)
TTITLE29=If You Don't Know (1958)
EXTD=
EXTT0=
EXTT1=
EXTT2=
EXTT3=
EXTT4=
EXTT5=
EXTT6=
EXTT7=
EXTT8=
EXTT9=
EXTT10=
EXTT11=
EXTT12=
EXTT13=
EXTT14=
EXTT15=
EXTT16=
EXTT17=
EXTT18=
EXTT19=
EXTT20=
EXTT21=
EXTT22=
EXTT23=
EXTT24=
EXTT25=
EXTT26=
EXTT27=
EXTT28=
EXTT29=
PLAYORDER=
